HIERARCHY
ROOT hip
{
	OFFSET 0.000000 0.000000 0.000000 
	CHANNELS 6 Xposition Yposition Zposition Xrotation Zrotation Yrotation
	JOINT abdomen
	{
		OFFSET 0.000000 3.402643 0.000000 
		CHANNELS 3 Xrotation Zrotation Yrotation
		JOINT chest
		{
			OFFSET 0.000000 8.438565 -0.680529 
			CHANNELS 3 Xrotation Zrotation Yrotation
			JOINT neck
			{
				OFFSET 0.000000 10.207942 -0.272212 
				CHANNELS 3 Xrotation Zrotation Yrotation
				JOINT head
				{
					OFFSET 0.000000 3.130431 0.000000 
					CHANNELS 3 Xrotation Zrotation Yrotation
					End Site
					{
						OFFSET 0.000000 3.130435 0.000000 
					}
				}
			}
			JOINT lCollar
			{
				OFFSET 3.470700 6.669187 -0.816635 
				CHANNELS 3 Yrotation Zrotation Xrotation
				JOINT lShldr
				{
					OFFSET 3.198488 0.000000 0.000000 
					CHANNELS 3 Zrotation Yrotation Xrotation
					JOINT lForeArm
					{
						OFFSET 10.139888 0.000000 0.000000 
						CHANNELS 3 Yrotation Zrotation Xrotation
						JOINT lHand
						{
							OFFSET 8.370511 0.000000 0.000000 
							CHANNELS 3 Zrotation Yrotation Xrotation
							End Site
							{
								OFFSET 4.083176 0.000000 0.000000 
							}
						}
					}
				}
			}
			JOINT rCollar
			{
				OFFSET -3.470700 6.669187 -0.816635 
				CHANNELS 3 Yrotation Zrotation Xrotation
				JOINT rShldr
				{
					OFFSET -3.198488 0.000000 0.000000 
					CHANNELS 3 Zrotation Yrotation Xrotation
					JOINT rForeArm
					{
						OFFSET -10.139888 0.000000 0.000000 
						CHANNELS 3 Yrotation Zrotation Xrotation
						JOINT rHand
						{
							OFFSET -8.370511 0.000000 0.000000 
							CHANNELS 3 Zrotation Yrotation Xrotation
							End Site
							{
								OFFSET -4.083176 0.000000 0.000000 
							}
						}
					}
				}
			}
		}
	}
	JOINT lThigh
	{
		OFFSET 5.308129 -1.633274 1.361059 
		CHANNELS 3 Xrotation Zrotation Yrotation
		JOINT lShin
		{
			OFFSET -2.041588 -20.007561 0.000000 
			CHANNELS 3 Xrotation Zrotation Yrotation
			JOINT lFoot
			{
				OFFSET 0.000000 -19.190928 -1.224953 
				CHANNELS 3 Xrotation Yrotation Zrotation
				End Site
				{
					OFFSET 0.000000 -2.449906 4.627600 
				}
			}
		}
	}
	JOINT rThigh
	{
		OFFSET -5.308129 -1.633274 1.361059 
		CHANNELS 3 Xrotation Zrotation Yrotation
		JOINT rShin
		{
			OFFSET 2.041588 -20.007561 0.000000 
			CHANNELS 3 Xrotation Zrotation Yrotation
			JOINT rFoot
			{
				OFFSET 0.000000 -19.190928 -1.224953 
				CHANNELS 3 Xrotation Yrotation Zrotation
				End Site
				{
					OFFSET 0.000000 -2.449906 4.627600 
				}
			}
		}
	}
}
MOTION
Frames: 18
Frame Time: 0.016667
0.546179 53.129452 0.600370 -11.142578 2.138672 5.302734 23.632811 0.546875 -0.625000 3.906250 0.927734 -1.816248 -2.910156 4.443358 -0.390625 12.753907 -2.089844 7.626597 -17.070311 -12.226563 -0.642463 -63.789063 14.355470 -26.787109 -23.232422 -5.000000 28.652344 -15.478517 0.107422 5.419924 15.000000 15.839844 -0.862041 61.728519 -11.982422 -25.294996 25.468750 4.990234 19.569462 12.246094 -23.348871 4.732492 17.656111 12.157962 0.753294 5.817698 -5.241802 -0.782464 -11.023758 4.182939 -6.480993 24.582914 -7.059170 -8.529295 -2.157335 2.693834 -0.024847 -7.305198 -15.956162 5.047112 
0.547322 53.120033 0.594301 -11.162109 2.080078 5.341797 23.642576 0.625000 -0.615234 3.857422 0.927734 -1.816248 -2.890625 4.423828 -0.389872 12.783204 -2.099610 7.743782 -17.070313 -12.177733 -0.634766 -63.867188 14.404297 -26.804213 -23.242189 -5.000000 28.691401 -15.468749 0.175781 5.273471 15.058595 15.732422 -0.852257 61.835938 -12.031250 -25.341799 25.449219 4.990234 19.531248 12.226563 -23.359377 4.869175 17.638971 12.201756 0.774051 5.774205 -5.218160 -0.729722 -11.123253 4.160827 -6.142369 24.578121 -6.972532 -8.513609 -2.154639 2.670000 -0.043469 -7.147360 -15.933991 5.047284 
0.547894 53.112572 0.588958 -11.162109 2.021484 5.371094 23.662109 0.703125 -0.595583 3.818359 0.927734 -1.816406 -2.871094 4.414063 -0.390625 12.812500 -2.109298 7.841740 -17.060545 -12.138672 -0.632712 -63.935551 14.433594 -26.816408 -23.242189 -5.000000 28.710936 -15.478515 0.195313 5.166054 15.126955 15.644531 -0.842477 61.914059 -12.080078 -25.361326 25.439453 4.990234 19.482420 12.207031 -23.359375 4.970703 17.670906 12.262583 0.828273 5.724376 -5.229112 -0.745493 -11.229086 4.222900 -5.784673 24.575792 -6.913351 -8.516569 -2.173927 2.680478 -0.025514 -7.045123 -15.977043 5.007018 
0.547893 53.107059 0.584338 -11.162109 1.972656 5.371094 23.662111 0.751953 -0.576044 3.798828 0.917969 -1.816250 -2.861328 4.404297 -0.380859 12.822266 -2.119140 7.939455 -17.060547 -12.109375 -0.634766 -63.974613 14.462890 -26.835936 -23.251955 -5.000000 28.730471 -15.488280 0.185547 5.068396 15.185548 15.576173 -0.842466 61.982422 -12.109376 -25.373144 25.429688 4.990234 19.433592 12.187500 -23.388672 5.064485 17.668531 12.319198 0.841423 5.693122 -5.234057 -0.752079 -11.281054 4.245887 -5.554642 24.581997 -6.854086 -8.479530 -2.182928 2.660057 -0.035114 -6.957183 -16.011938 4.969836 
0.547891 53.101563 0.579718 -11.171875 1.923828 5.381187 23.671875 0.810547 -0.537109 3.769531 0.917969 -1.806484 -2.851563 4.404297 -0.371094 12.841797 -2.128906 8.036746 -17.060547 -12.080078 -0.634766 -64.013672 14.492188 -26.845705 -23.251955 -5.000000 28.759766 -15.507813 0.156250 4.980469 15.253906 15.517577 -0.839844 62.041012 -12.148438 -25.380857 25.429688 4.990234 19.404297 12.187499 -23.398438 5.146484 17.663853 12.361795 0.859705 5.658344 -5.228955 -0.730012 -11.338322 4.285183 -5.284089 24.565662 -6.835530 -8.443968 -2.185694 2.682049 -0.055509 -6.820121 -15.975522 5.003915 
0.547891 53.098743 0.576020 -11.171874 1.894531 5.410479 23.701174 0.849609 -0.536965 3.740234 0.917969 -1.806641 -2.861328 4.404297 -0.371094 12.880860 -2.138672 8.114869 -17.041016 -12.070312 -0.634766 -64.042969 14.511719 -26.853024 -23.251955 -5.000000 28.789063 -15.507813 0.166016 4.902344 15.292968 15.468751 -0.830078 62.089840 -12.167969 -25.390625 25.400391 4.990234 19.403448 12.158203 -23.378906 5.214844 17.657825 12.387411 0.846569 5.638903 -5.250282 -0.719290 -11.372930 4.348569 -5.110951 24.567760 -6.796858 -8.462509 -2.181534 2.686393 -0.036071 -6.806736 -15.958468 4.969475 
0.547891 53.095924 0.572323 -11.171875 1.875000 5.439773 23.720703 0.898438 -0.536956 3.710938 0.917969 -1.806641 -2.871094 4.394532 -0.371094 12.929688 -2.148437 8.193359 -17.021486 -12.050781 -0.634766 -64.072266 14.531250 -26.872553 -23.251955 -5.000000 28.828125 -15.498048 0.185547 4.833985 15.332033 15.419922 -0.832675 62.138672 -12.187499 -25.410158 25.390623 4.990234 19.394531 12.128906 -23.369141 5.279332 17.664469 12.430020 0.844979 5.627778 -5.247233 -0.747631 -11.398130 4.352185 -4.977881 24.564240 -6.776452 -8.476884 -2.175053 2.691637 -0.035712 -6.759354 -15.905272 4.989572 
0.547891 53.094635 0.569250 -11.181641 1.855469 5.449535 23.730467 0.917969 -0.517578 3.681641 0.917969 -1.806641 -2.871094 4.394532 -0.371094 12.958984 -2.158203 8.271117 -17.011719 -12.031250 -0.632730 -64.091797 14.550782 -26.875002 -23.251955 -5.000000 28.857420 -15.498048 0.185547 4.794922 15.371095 15.390624 -0.832670 62.177731 -12.207032 -25.419922 25.380857 4.990234 19.394531 12.128906 -23.369141 5.308628 17.669937 12.456733 0.842152 5.599473 -5.248497 -0.764706 -11.410625 4.318158 -4.875245 24.560064 -6.719250 -8.459786 -2.171406 2.668014 -0.064091 -6.735213 -15.955709 4.960172 
0.547891 53.094875 0.566799 -11.191406 1.845703 5.449219 23.740232 0.917969 -0.507813 3.671875 0.908203 -1.796720 -2.861328 4.414063 -0.380859 12.998046 -2.167969 8.339845 -17.011719 -12.011719 -0.632733 -64.101563 14.570312 -26.884768 -23.242189 -5.000000 28.867184 -15.498048 0.195313 4.785159 15.400390 15.371095 -0.830078 62.187500 -12.236327 -25.419920 25.380857 4.990234 19.404297 12.128906 -23.369141 5.318394 17.673891 12.468912 0.854169 5.590189 -5.258652 -0.754447 -11.382313 4.304041 -4.850459 24.578249 -6.728592 -8.472463 -2.181877 2.698201 -0.046282 -6.707246 -15.917687 4.949277 
0.547891 53.095116 0.564349 -11.210938 1.835938 5.458984 23.759768 0.927734 -0.507654 3.652344 0.908203 -1.786955 -2.841797 4.423828 -0.371094 13.027344 -2.167969 8.408204 -17.021486 -12.001953 -0.634766 -64.121094 14.589844 -26.882305 -23.242189 -5.000000 28.886717 -15.498048 0.214844 4.755859 15.439453 15.371095 -0.820313 62.207035 -12.265626 -25.431763 25.361328 4.990234 19.423828 12.148438 -23.369141 5.318393 17.670141 12.456843 0.852125 5.605097 -5.243321 -0.725514 -11.379146 4.313117 -4.802328 24.587826 -6.699124 -8.493807 -2.184921 2.671039 -0.035552 -6.690297 -15.908453 4.964272 
0.547891 53.095448 0.562851 -11.191406 1.835938 5.468750 23.750000 0.927734 -0.507654 3.623047 0.917969 -1.777187 -2.822266 4.414062 -0.370342 13.046875 -2.177734 8.466797 -17.011719 -11.992188 -0.632737 -64.130859 14.619141 -26.872536 -23.222656 -5.000000 28.896481 -15.488280 0.214844 4.726604 15.468749 15.341797 -0.830078 62.236328 -12.285156 -25.441532 25.371094 4.990234 19.413212 12.148438 -23.369141 5.328159 17.666304 12.479953 0.857988 5.595167 -5.253328 -0.754248 -11.304317 4.291658 -4.836553 24.571098 -6.687791 -8.501221 -2.182130 2.649028 -0.015157 -6.675577 -15.929357 4.968679 
0.547891 53.095795 0.561354 -11.191406 1.845703 5.488281 23.759768 0.917969 -0.507656 3.593750 0.917969 -1.777187 -2.802734 4.414062 -0.370342 13.076173 -2.187500 8.525072 -17.011719 -11.992188 -0.632737 -64.140625 14.628908 -26.884768 -23.222656 -5.000000 28.916016 -15.468749 0.205078 4.687535 15.507813 15.312500 -0.832657 62.265625 -12.314452 -25.449217 25.371094 4.990234 19.422977 12.158202 -23.369139 5.332031 17.658199 12.455473 0.821868 5.604988 -5.243223 -0.735260 -11.257181 4.283178 -4.874559 24.561310 -6.687765 -8.511305 -2.171934 2.619471 -0.013459 -6.691441 -15.969858 4.968897 
0.547891 53.096542 0.560040 -11.191406 1.855469 5.488282 23.759768 0.917969 -0.507656 3.583984 0.917969 -1.777344 -2.792969 4.414062 -0.371094 13.095703 -2.197266 8.583610 -16.992189 -11.982423 -0.625000 -64.150391 14.638673 -26.865234 -23.222656 -5.000000 28.925779 -15.449219 0.195313 4.668007 15.537109 15.302735 -0.822890 62.294926 -12.314454 -25.451303 25.371094 4.990234 19.422977 12.167969 -23.369143 5.318393 17.657995 12.455358 0.811894 5.592480 -5.270523 -0.754793 -11.231889 4.311471 -4.860669 24.564886 -6.708162 -8.496923 -2.175466 2.653062 -0.044062 -6.664700 -15.892883 4.986482 
0.547891 53.097687 0.558908 -11.201172 1.875000 5.488282 23.759766 0.908203 -0.497892 3.593750 0.898438 -1.786956 -2.792969 4.423828 -0.370340 13.085938 -2.207031 8.632813 -16.962889 -11.962891 -0.622976 -64.140625 14.638673 -26.855471 -23.212891 -5.000000 28.925779 -15.449219 0.166016 4.677763 15.566406 15.292968 -0.820313 62.304684 -12.304688 -25.439453 25.351564 4.990234 19.452276 12.187500 -23.369141 5.298862 17.657995 12.455358 0.811894 5.592298 -5.270288 -0.774284 -11.210537 4.326600 -4.897658 24.581900 -6.717390 -8.479667 -2.205177 2.653374 -0.055642 -6.703376 -15.974571 4.965622 
0.547891 53.098831 0.557777 -11.201171 1.884766 5.488603 23.759768 0.898438 -0.488128 3.593750 0.888672 -1.796724 -2.792969 4.433594 -0.360573 13.095704 -2.226563 8.681262 -16.933594 -11.943360 -0.622979 -64.140625 14.628908 -26.835939 -23.203125 -5.000000 28.936398 -15.449219 0.136719 4.687523 15.595704 15.302735 -0.813124 62.324219 -12.285156 -25.441532 25.361328 4.990234 19.453127 12.207031 -23.359375 5.292969 17.665997 12.460818 0.801705 5.611001 -5.278954 -0.776195 -11.227619 4.290971 -4.925594 24.603443 -6.717638 -8.509390 -2.202531 2.669693 -0.026904 -6.728211 -15.945399 4.955764 
0.547891 53.100040 0.556716 -11.210938 1.904297 5.498047 23.759766 0.869141 -0.497899 3.583984 0.888672 -1.787109 -2.763672 4.433594 -0.361328 13.095703 -2.216797 8.662109 -16.943357 -11.933594 -0.632746 -64.140625 14.638673 -26.826174 -23.193359 -5.000000 28.946161 -15.449219 0.146484 4.697291 15.595702 15.263673 -0.820313 62.353516 -12.285155 -25.419922 25.351564 4.990234 19.462040 12.207032 -23.369143 5.250033 17.652321 12.428539 0.804752 5.608846 -5.238420 -0.765218 -11.178911 4.294343 -4.979352 24.592865 -6.717533 -8.499518 -2.196407 2.635273 -0.054388 -6.714615 -15.979507 4.962396 
0.547890 53.101254 0.555656 -11.210937 1.914063 5.508139 23.759766 0.849609 -0.488136 3.564453 0.898438 -1.777344 -2.744141 4.433594 -0.361328 13.105468 -2.216797 8.632813 -16.962891 -11.933594 -0.634765 -64.130859 14.648437 -26.804171 -23.203125 -5.000000 28.916866 -15.439453 0.156250 4.677766 15.585937 15.253906 -0.810547 62.373047 -12.285155 -25.392700 25.351564 4.990234 19.481571 12.207031 -23.378908 5.205079 17.663031 12.429206 0.775161 5.595595 -5.253300 -0.734747 -11.205544 4.257992 -4.996548 24.617584 -6.738142 -8.504891 -2.236103 2.664246 -0.087175 -6.690948 -15.952657 4.987151 
0.547487 53.101826 0.555085 -11.201172 1.923828 5.517578 23.759766 0.849609 -0.488136 3.564453 0.898438 -1.767578 -2.744141 4.433594 -0.361328 13.105468 -2.216797 8.593750 -16.962889 -11.914063 -0.622984 -64.130859 14.648437 -26.784639 -23.203125 -5.000000 28.916866 -15.439453 0.156250 4.668000 15.605470 15.224609 -0.822877 62.392574 -12.275390 -25.371094 25.351564 4.990234 19.491339 12.207031 -23.388672 5.166016 17.662825 12.429094 0.765188 5.599692 -5.248695 -0.745214 -11.204178 4.217146 -5.060211 24.625193 -6.747376 -8.507701 -2.230359 2.668082 -0.106772 -6.691432 -15.928215 4.987710 
